grf
version=1
nRows=11
nColumns=37
inDegrees=no
endheader
time	ground_force_1_vx	ground_force_1_vy	ground_force_1_vz	ground_force_1_px	ground_force_1_py	ground_force_1_pz	ground_moment_1_mx	ground_moment_1_my	ground_moment_1_mz	ground_force_2_vx	ground_force_2_vy	ground_force_2_vz	ground_force_2_px	ground_force_2_py	ground_force_2_pz	ground_moment_2_mx	ground_moment_2_my	ground_moment_2_mz	ground_force_3_vx	ground_force_3_vy	ground_force_3_vz	ground_force_3_px	ground_force_3_py	ground_force_3_pz	ground_moment_3_mx	ground_moment_3_my	ground_moment_3_mz	ground_force_4_vx	ground_force_4_vy	ground_force_4_vz	ground_force_4_px	ground_force_4_py	ground_force_4_pz	ground_moment_4_mx	ground_moment_4_my	ground_moment_4_mz
      0.00000000	      0.00000000	     -0.00000000	      0.00000000	      0.00000000	      0.00000000	      0.00000000	      0.00000000	      0.00000000	      0.00000000	      3.74684143	     26.85923004	   -377.04266357	   -405.10434002	  -1065.07239375	      0.00000000	      0.00000000	      0.00000000	   2173.44336157	     -3.10487982	    -26.88797733	   -351.06408691	   -385.66596774	   -724.20664868	      0.00000000	      0.00000000	     -0.00000000	  -2852.57768503	      0.00000000	     -0.00000000	      0.00000000	      0.00000000	      0.00000000	      0.00000000	      0.00000000	      0.00000000	      0.00000000
      0.01000000	      0.00000000	     -0.00000000	      0.00000000	      0.00000000	      0.00000000	      0.00000000	      0.00000000	      0.00000000	      0.00000000	      3.87506270	     26.99533272	   -376.12185669	   -404.76563335	  -1065.05398287	      0.00000000	      0.00000000	      0.00000000	   2336.12639741	     -2.70760438	    -26.98801971	   -352.81015015	   -385.24261998	   -723.26022708	      0.00000000	      0.00000000	     -0.00000000	  -2959.78075507	      0.00000000	     -0.00000000	      0.00000000	      0.00000000	      0.00000000	      0.00000000	      0.00000000	      0.00000000	      0.00000000
      0.02000000	      0.00000000	     -0.00000000	      0.00000000	      0.00000000	      0.00000000	      0.00000000	      0.00000000	      0.00000000	      0.00000000	      3.84684896	     27.27749825	   -376.64505005	   -404.71761434	  -1065.07110458	      0.00000000	      0.00000000	      0.00000000	   2297.93366923	     -2.92374177	    -26.76517080	   -352.67239380	   -385.31705312	   -723.07081055	      0.00000000	     -0.00000000	     -0.00000000	  -2990.18457019	      0.00000000	     -0.00000000	      0.00000000	      0.00000000	      0.00000000	      0.00000000	      0.00000000	      0.00000000	      0.00000000
      0.03000000	      0.00000000	     -0.00000000	      0.00000000	      0.00000000	      0.00000000	      0.00000000	      0.00000000	      0.00000000	      0.00000000	      3.96813345	     27.10950279	   -376.16412354	   -405.06512449	  -1064.63166914	      0.00000000	      0.00000000	      0.00000000	   2266.33320636	     -2.78901215	    -26.71552443	   -352.30810547	   -385.29849227	   -723.23918664	      0.00000000	      0.00000000	     -0.00000000	  -2874.60996698	      0.00000000	     -0.00000000	      0.00000000	      0.00000000	      0.00000000	      0.00000000	      0.00000000	      0.00000000	      0.00000000
      0.04000000	      0.00000000	     -0.00000000	      0.00000000	      0.00000000	      0.00000000	      0.00000000	      0.00000000	      0.00000000	      0.00000000	      3.75346732	     26.91738129	   -375.62655640	   -405.15123860	  -1063.99969168	      0.00000000	      0.00000000	      0.00000000	   2230.38481440	     -2.76033280	    -26.98056578	   -351.90432739	   -385.97406950	   -723.98321834	      0.00000000	     -0.00000000	     -0.00000000	  -2992.59148878	      0.00000000	     -0.00000000	      0.00000000	      0.00000000	      0.00000000	      0.00000000	      0.00000000	      0.00000000	      0.00000000
      0.05000000	      0.00000000	     -0.00000000	      0.00000000	      0.00000000	      0.00000000	      0.00000000	      0.00000000	      0.00000000	      0.00000000	      3.91571426	     27.09882164	   -375.80865479	   -405.09766813	  -1063.81828232	      0.00000000	      0.00000000	      0.00000000	   2357.09163085	     -2.65802334	    -27.06566406	   -352.09991455	   -385.48168605	   -723.47625529	      0.00000000	      0.00000000	     -0.00000000	  -2912.76616164	      0.00000000	     -0.00000000	      0.00000000	      0.00000000	      0.00000000	      0.00000000	      0.00000000	      0.00000000	      0.00000000
      0.06000000	      0.00000000	     -0.00000000	      0.00000000	      0.00000000	      0.00000000	      0.00000000	      0.00000000	      0.00000000	      0.00000000	      3.83605194	     27.23992348	   -377.18420410	   -404.09923192	  -1065.57049678	      0.00000000	      0.00000000	      0.00000000	   2201.21923487	     -2.44112296	    -26.67001512	   -352.25680542	   -385.50152694	   -723.09762618	      0.00000000	     -0.00000000	     -0.00000000	  -3018.48757132	      0.00000000	     -0.00000000	      0.00000000	      0.00000000	      0.00000000	      0.00000000	      0.00000000	      0.00000000	      0.00000000
      0.07000000	      0.00000000	     -0.00000000	      0.00000000	      0.00000000	      0.00000000	      0.00000000	      0.00000000	      0.00000000	      0.00000000	      3.74393606	     26.74782944	   -377.36703491	   -404.68645932	  -1065.50811386	      0.00000000	     -0.00000000	      0.00000000	   2269.26284224	     -2.61545704	    -27.03246285	   -352.51025391	   -385.63247308	   -723.31992309	      0.00000000	     -0.00000000	      0.00000000	  -3017.26233779	      0.00000000	     -0.00000000	      0.00000000	      0.00000000	      0.00000000	      0.00000000	      0.00000000	      0.00000000	      0.00000000
      0.08000000	      0.00000000	     -0.00000000	      0.00000000	      0.00000000	      0.00000000	      0.00000000	      0.00000000	      0.00000000	      0.00000000	      3.65763092	     27.01205635	   -376.62796021	   -404.83095708	  -1064.83198703	      0.00000000	      0.00000000	      0.00000000	   2292.95614084	     -2.88455128	    -27.15459226	   -352.47427368	   -385.27378950	   -723.37298033	      0.00000000	      0.00000000	     -0.00000000	  -2903.41723987	      0.00000000	     -0.00000000	      0.00000000	      0.00000000	      0.00000000	      0.00000000	      0.00000000	      0.00000000	      0.00000000
      0.09000000	      0.00000000	     -0.00000000	      0.00000000	      0.00000000	      0.00000000	      0.00000000	      0.00000000	      0.00000000	      0.00000000	      3.61957383	     27.23064613	   -376.16772461	   -404.64355331	  -1064.80618815	      0.00000000	      0.00000000	      0.00000000	   2286.72321417	     -3.10762212	    -26.94084331	   -351.76486206	   -385.80711608	   -724.06503856	      0.00000000	      0.00000000	     -0.00000000	  -2803.96043011	      0.00000000	     -0.00000000	      0.00000000	      0.00000000	      0.00000000	      0.00000000	      0.00000000	      0.00000000	      0.00000000
      0.10000000	      0.00000000	     -0.00000000	      0.00000000	      0.00000000	      0.00000000	      0.00000000	      0.00000000	      0.00000000	      0.00000000	      3.25244999	     27.12901688	   -376.27874756	   -404.60234834	  -1065.07518924	      0.00000000	      0.00000000	      0.00000000	   2226.55547520	     -2.83090873	    -26.80172895	   -353.18228149	   -386.01707744	   -723.32581032	      0.00000000	      0.00000000	     -0.00000000	  -2934.67685510	      0.00000000	     -0.00000000	      0.00000000	      0.00000000	      0.00000000	      0.00000000	      0.00000000	      0.00000000	      0.00000000
